Coordinates
version=1
nRows=29
nColumns=24
inDegrees=yes

Units are S.I. units (second, meters, Newtons, ...)
If the header above contains a line with 'inDegrees', this indicates whether rotational values are in degrees (yes) or radians (no).

endheader
time	pelvis_tilt	pelvis_list	pelvis_rotation	pelvis_tx	pelvis_ty	pelvis_tz	lumbar_extension	lumbar_bending	lumbar_rotation	arm_flex_r	arm_add_r	arm_rot_r	elbow_flex_r	pro_sup_r	wrist_flex_r	wrist_dev_r	arm_flex_l	arm_add_l	arm_rot_l	elbow_flex_l	pro_sup_l	wrist_flex_l	wrist_dev_l
      0.00000000	    -13.98487470	     -0.02255674	      5.31299987	      1.23411151	      0.86706065	      0.14330444	     -5.92775572	     -0.95818316	      2.58574870	      9.14326125	    -19.35776337	     38.25186394	     29.66027138	     30.78523858	    -25.68552750	    -24.99999983	     10.37871418	     -9.64727236	     28.85763666	     21.71621420	     45.23760236	    -11.48017636	    -15.33180530
      0.00400000	    -13.98338154	     -0.02514738	      5.31535148	      1.23403284	      0.86704975	      0.14314695	     -5.92695291	     -0.96046678	      2.58881125	      9.14545279	    -19.35599357	     38.25168330	     29.66127235	     30.78558186	    -25.68456175	    -24.99999983	     10.37667084	     -9.64753897	     28.85759211	     21.71565539	     45.23829884	    -11.48071441	    -15.33158040
      0.00800000	    -13.97639905	     -0.03158392	      5.33039726	      1.23394958	      0.86701934	      0.14304373	     -5.92117271	     -0.96859545	      2.60363050	      9.16310005	    -19.35258705	     38.24889011	     29.66656801	     30.78813599	    -25.67775721	    -24.99999983	     10.36705560	     -9.63963783	     28.85877019	     21.71667032	     45.24385811	    -11.48421725	    -15.33028578
      0.01200000	    -13.97483036	     -0.03440516	      5.33193496	      1.23389191	      0.86697877	      0.14291713	     -5.92033888	     -0.97116522	      2.60565180	      9.16514306	    -19.35090782	     38.24872613	     29.66759592	     30.78856082	    -25.67672891	    -24.99999983	     10.36584970	     -9.63847922	     28.85895325	     21.71700666	     45.24465572	    -11.48477895	    -15.33012509
      0.01600000	    -13.96399311	     -0.04614538	      5.34271180	      1.23383221	      0.86682102	      0.14292545	     -5.91169459	     -0.98493225	      2.61487273	      9.18271720	    -19.33861807	     38.24732266	     29.67659182	     30.79246474	    -25.66787702	    -24.99999983	     10.36179521	     -9.60994719	     28.86249927	     21.72667131	     45.25114393	    -11.49028381	    -15.32910052
      0.02000000	    -13.96284212	     -0.04865908	      5.34449856	      1.23378484	      0.86685452	      0.14273862	     -5.91082881	     -0.98693868	      2.61755411	      9.18472192	    -19.33674173	     38.24726330	     29.67776833	     30.79295173	    -25.66684996	    -24.99999983	     10.36068172	     -9.60979950	     28.86250020	     21.72688247	     45.25179599	    -11.49105468	    -15.32901072
      0.02400000	    -13.95591199	     -0.05407469	      5.36014008	      1.23370102	      0.86680183	      0.14261898	     -5.90509782	     -0.99404771	      2.63317028	      9.20335051	    -19.33447557	     38.24488503	     29.68403077	     30.79679518	    -25.65897441	    -24.99999983	     10.35274382	     -9.59654518	     28.86426844	     21.73258331	     45.25727945	    -11.49676866	    -15.32840727
      0.02800000	    -13.95486312	     -0.05603648	      5.36207288	      1.23364617	      0.86677773	      0.14245992	     -5.90459637	     -0.99562739	      2.63588535	      9.20542914	    -19.33343492	     38.24475755	     29.68496724	     30.79733494	    -25.65791575	    -24.99999983	     10.35155376	     -9.59647471	     28.86428606	     21.73297685	     45.25797737	    -11.49756633	    -15.32834798
      0.03200000	    -13.94942614	     -0.05735620	      5.38030006	      1.23354381	      0.86674706	      0.14228295	     -5.89995156	     -0.99856773	      2.65489400	      9.22661747	    -19.34083901	     38.24114065	     29.68909816	     30.80211391	    -25.64873160	    -24.99999983	     10.34222040	     -9.59087955	     28.86543642	     21.73943617	     45.26497339	    -11.50390880	    -15.32798661
      0.03600000	    -13.94881396	     -0.05857386	      5.38269931	      1.23348242	      0.86674651	      0.14207539	     -5.89972654	     -0.99921760	      2.65846546	      9.22889459	    -19.34063939	     38.24095008	     29.68983215	     30.80269762	    -25.64767129	    -24.99999983	     10.34059512	     -9.59291381	     28.86526407	     21.73944601	     45.26575958	    -11.50460810	    -15.32795510
      0.04000000	    -13.94339265	     -0.06188414	      5.39894873	      1.23341957	      0.86666011	      0.14194627	     -5.89532319	     -1.00413716	      2.67498159	      9.24925545	    -19.34848230	     38.23815095	     29.69365725	     30.80711958	    -25.64004186	    -24.99999983	     10.33191069	     -9.58584461	     28.86682817	     21.74633694	     45.27187958	    -11.50924093	    -15.32776866
      0.04400000	    -13.94270741	     -0.06319234	      5.40121567	      1.23337566	      0.86666747	      0.14175545	     -5.89490282	     -1.00494310	      2.67829564	      9.25180783	    -19.34854833	     38.23800030	     29.69441089	     30.80778158	    -25.63893651	    -24.99999983	     10.33054121	     -9.58719461	     28.86676069	     21.74674522	     45.27273244	    -11.50989537	    -15.32776166
      0.04800000	    -13.93671133	     -0.06732435	      5.41684364	      1.23332120	      0.86656419	      0.14162506	     -5.89003042	     -1.01066613	      2.69409655	      9.27316310	    -19.35740919	     38.23579007	     29.69821484	     30.81273811	    -25.63092159	    -24.99999983	     10.32225489	     -9.57733180	     28.86884024	     21.75532833	     45.27919781	    -11.51434473	    -15.32768741
      0.05200000	    -14.40824562	     -0.11255062	      5.34128511	      1.22597408	      0.86825619	      0.14180553	     -6.39946541	     -0.99848108	      2.62960676	     10.48530608	    -19.40191650	     38.23994366	     29.16116814	     32.27258753	    -22.59919507	    -24.99999983	     11.19280830	     -9.46917706	     28.27072923	     21.92059303	     47.84246540	    -13.71432984	    -14.87355214
      0.05600000	    -14.40718565	     -0.11469664	      5.34436740	      1.22595222	      0.86823441	      0.14163308	     -6.39875313	     -1.00035422	      2.63349097	     10.48799807	    -19.40088133	     38.23973360	     29.16215422	     32.27247960	    -22.59919460	    -24.99999983	     11.19071199	     -9.47095905	     28.27063529	     21.92005131	     47.84278038	    -13.71431018	    -14.87313007
      0.06000000	    -14.39941987	     -0.12164551	      5.35941246	      1.22596265	      0.86815451	      0.14155523	     -6.39189538	     -1.00932927	      2.64793614	     10.50376411	    -19.40152777	     38.23792320	     29.16599072	     32.27198701	    -22.59920689	    -24.99999983	     11.18082961	     -9.46760348	     28.27192067	     21.92111937	     47.84467107	    -13.71406679	    -14.87083358
      0.06400000	    -14.39158060	     -0.13076757	      5.36582098	      1.22599724	      0.86805498	      0.14149823	     -6.38513885	     -1.01959170	      2.65341379	     10.51308323	    -19.39712413	     38.23805585	     29.16985958	     32.27158409	    -22.59900615	    -24.99999983	     11.17770809	     -9.45455490	     28.27414187	     21.92662632	     47.84648298	    -13.71431474	    -14.86845917
      0.06800000	    -14.39062621	     -0.13219714	      5.36867396	      1.22598982	      0.86805051	      0.14132333	     -6.38430096	     -1.02071407	      2.65715782	     10.51576250	    -19.39598883	     38.23811778	     29.17084743	     32.27159274	    -22.59892012	    -24.99999983	     11.17602501	     -9.45583890	     28.27411131	     21.92635585	     47.84670672	    -13.71443999	    -14.86806177
      0.07200000	    -14.38334363	     -0.13149275	      5.38568925	      1.22596007	      0.86799785	      0.14114944	     -6.37727638	     -1.02189173	      2.67503361	     10.53391375	    -19.40655529	     38.23685830	     29.17189527	     32.27132992	    -22.59848583	    -24.99999983	     11.16310266	     -9.46078236	     28.27571772	     21.92721958	     47.84979801	    -13.71455067	    -14.86432232
      0.07600000	    -14.38225328	     -0.13417808	      5.38806640	      1.22602231	      0.86796719	      0.14101405	     -6.37614280	     -1.02440115	      2.67787014	     10.53774558	    -19.40685026	     38.23668325	     29.17267880	     32.27134921	    -22.59836919	    -24.99999983	     11.16194070	     -9.46088534	     28.27599406	     21.92753333	     47.85013432	    -13.71456920	    -14.86390735
      0.08000000	    -14.37391957	     -0.09609856	      5.37410690	      1.22598280	      0.86790718	      0.14010709	     -6.36437950	     -0.98233173	      2.67356617	     10.61180547	    -19.52212508	     38.24274316	     29.14578411	     32.24902104	    -22.58095977	    -24.99999983	     11.08020132	     -9.40961748	     28.33450061	     22.00811142	     47.91152317	    -13.69747889	    -14.81027727
      0.08400000	    -14.37318720	     -0.09811703	      5.37690774	      1.22598867	      0.86789300	      0.13993053	     -6.36378377	     -0.98400801	      2.67720231	     10.61442570	    -19.52130864	     38.24313099	     29.14698354	     32.24908736	    -22.58072029	    -24.99999983	     11.07868412	     -9.41213289	     28.33441187	     22.00736721	     47.91183579	    -13.69747136	    -14.80987087
      0.08800000	    -14.36534930	     -0.10390056	      5.39051791	      1.22601806	      0.86783232	      0.13985457	     -6.35655961	     -0.99168505	      2.69033023	     10.62852972	    -19.52135416	     38.24627727	     29.15338266	     32.25012452	    -22.57916399	    -24.99999983	     11.07115782	     -9.41228742	     28.33644517	     22.00724384	     47.91416441	    -13.69717831	    -14.80716032
      0.09200000	    -14.35552787	     -0.11310960	      5.39715755	      1.22610979	      0.86772351	      0.13982499	     -6.34755958	     -1.00237568	      2.69577150	     10.64077239	    -19.52020495	     38.24921463	     29.15919639	     32.25074859	    -22.57743250	    -24.99999983	     11.06849293	     -9.40414878	     28.33953971	     22.01017263	     47.91607487	    -13.69740666	    -14.80463646
      0.09600000	    -14.35405234	     -0.11509999	      5.39959017	      1.22614843	      0.86770364	      0.13969057	     -6.34607129	     -1.00423259	      2.69873994	     10.64424756	    -19.51935910	     38.24974710	     29.16071894	     32.25092775	    -22.57706321	    -24.99999983	     11.06749179	     -9.40459908	     28.33991088	     22.01005168	     47.91634264	    -13.69752842	    -14.80418940
      0.10000000	    -14.34152355	     -0.11868613	      5.41281355	      1.22621106	      0.86764526	      0.13959621	     -6.33375354	     -1.01006974	      2.71168178	     10.66474204	    -19.52375064	     38.25378018	     29.16840433	     32.25231509	    -22.57415747	    -24.99999983	     11.05879172	     -9.40292776	     28.34453074	     22.01037906	     47.91877557	    -13.69829039	    -14.80046693
      0.10400000	    -14.34005674	     -0.12062725	      5.41505603	      1.22622417	      0.86764318	      0.13944594	     -6.33233520	     -1.01178166	      2.71458378	     10.66801583	    -19.52359097	     38.25439621	     29.16979200	     32.25258060	    -22.57375531	    -24.99999983	     11.05735327	     -9.40417526	     28.34500022	     22.00997645	     47.91905259	    -13.69840751	    -14.80000062
      0.10800000	    -14.32791480	     -0.12320002	      5.42792804	      1.22630958	      0.86762586	      0.13934346	     -6.31998652	     -1.01651389	      2.72733333	     10.69053979	    -19.53290835	     38.25946186	     29.17800869	     32.25503384	    -22.57040992	    -24.99999983	     11.04692285	     -9.40570854	     28.35111299	     22.00961576	     47.92190689	    -13.69895590	    -14.79590666
      0.11200000	    -14.32648719	     -0.12500839	      5.42996203	      1.22631000	      0.86759561	      0.13918376	     -6.31879128	     -1.01802758	      2.73010940	     10.69373025	    -19.53278275	     38.26026795	     29.17953441	     32.25542653	    -22.56996605	    -24.99999983	     11.04536799	     -9.40716567	     28.35174384	     22.00920559	     47.92222058	    -13.69902787	    -14.79541315
